<svg width="45" height="45" viewBox="0 0 45 45" fill="none" xmlns="http://www.w3.org/2000/svg">
<circle cx="22.5" cy="22.5" r="22.5" fill="#FF3F2F"/>
<g clip-path="url(#clip0_111_1276)">
<path d="M19.9672 12.6578C17.9689 13.351 16.2456 14.6668 15.0503 16.4119C13.8551 18.1569 13.2509 20.2393 13.3267 22.3531C13.4024 24.4669 14.1539 26.5007 15.4709 28.1557C16.7879 29.8108 18.601 30.9999 20.6438 31.5484C22.2999 31.9758 24.035 31.9945 25.7 31.6031C27.2083 31.2643 28.6028 30.5396 29.7469 29.5C30.9376 28.3849 31.802 26.9664 32.2469 25.3969C32.7304 23.6901 32.8164 21.8952 32.4985 20.15H23.1985V24.0078H28.5844C28.4768 24.6231 28.2461 25.2104 27.9062 25.7344C27.5663 26.2585 27.1242 26.7086 26.6063 27.0578C25.9487 27.493 25.2073 27.7858 24.4297 27.9172C23.6499 28.0622 22.8501 28.0622 22.0703 27.9172C21.2799 27.754 20.5323 27.4277 19.875 26.9594C18.819 26.2119 18.0261 25.1499 17.6094 23.925C17.1858 22.6772 17.1858 21.3244 17.6094 20.0766C17.906 19.2019 18.3963 18.4055 19.0438 17.7469C19.7847 16.9793 20.7227 16.4306 21.755 16.1611C22.7872 15.8915 23.8737 15.9115 24.8953 16.2187C25.6935 16.4636 26.4233 16.8917 27.0266 17.4687C27.6339 16.8646 28.2401 16.2589 28.8453 15.6516C29.1578 15.325 29.4985 15.0141 29.8063 14.6797C28.8852 13.8227 27.8042 13.1558 26.625 12.7172C24.4777 11.9375 22.1281 11.9165 19.9672 12.6578Z" fill="white"/>
<path d="M19.9676 12.6578C22.1283 11.916 24.4779 11.9364 26.6254 12.7156C27.8048 13.1572 28.8853 13.8273 29.8051 14.6875C29.4926 15.0219 29.1629 15.3344 28.8441 15.6594C28.2379 16.2646 27.6322 16.8677 27.027 17.4687C26.4237 16.8917 25.6938 16.4636 24.8957 16.2187C23.8744 15.9104 22.7879 15.8893 21.7554 16.1577C20.7229 16.4262 19.7843 16.9738 19.0426 17.7406C18.3951 18.3993 17.9048 19.1956 17.6082 20.0703L14.3691 17.5625C15.5285 15.2634 17.5359 13.5047 19.9676 12.6578Z" fill="white"/>
<path d="M13.5102 20.0469C13.6841 19.184 13.9732 18.3484 14.3695 17.5625L17.6086 20.0766C17.185 21.3244 17.185 22.6772 17.6086 23.925C16.5294 24.7583 15.4497 25.5958 14.3695 26.4375C13.3776 24.463 13.075 22.2133 13.5102 20.0469Z" fill="white"/>
<path d="M23.198 20.1484H32.498C32.8159 21.8937 32.7299 23.6885 32.2464 25.3953C31.8015 26.9648 30.9371 28.3834 29.7464 29.4984C28.7011 28.6828 27.6511 27.8734 26.6058 27.0578C27.124 26.7082 27.5663 26.2576 27.9063 25.733C28.2462 25.2084 28.4766 24.6205 28.5839 24.0047H23.198C23.1964 22.7203 23.198 21.4344 23.198 20.1484Z" fill="white"/>
<path d="M14.3672 26.4375C15.4474 25.6042 16.5271 24.7667 17.6062 23.925C18.0238 25.1503 18.8178 26.2123 19.875 26.9594C20.5343 27.4256 21.2836 27.7491 22.075 27.9094C22.8548 28.0544 23.6546 28.0544 24.4344 27.9094C25.2119 27.7779 25.9533 27.4852 26.6109 27.05C27.6562 27.8656 28.7063 28.675 29.7516 29.4906C28.6076 30.5308 27.2132 31.2561 25.7047 31.5953C24.0397 31.9867 22.3046 31.9679 20.6484 31.5406C19.3386 31.1909 18.1151 30.5744 17.0547 29.7297C15.9324 28.8385 15.0157 27.7155 14.3672 26.4375Z" fill="white"/>
</g>
<defs>
<clipPath id="clip0_111_1276">
<rect width="20" height="20" fill="white" transform="translate(13 12)"/>
</clipPath>
</defs>
</svg>
