<svg width="35" height="35" viewBox="0 0 35 35" fill="none" xmlns="http://www.w3.org/2000/svg">
<circle cx="17.5" cy="17.5" r="17.5" fill="#00D45E"/>
<path d="M17.5977 24.4453C14.4922 24.4453 12.2656 22.7266 12.207 20.2656H15.1758C15.2344 21.3203 16.25 22.0234 17.6172 22.0234C19.0234 22.0234 20.0391 21.2227 20.0195 20.0898C20.0391 18.9375 19.0039 18.1172 17.3438 18.1172H16.0352V15.9492H17.3438C18.7305 15.9492 19.707 15.1875 19.707 14.0742C19.707 13 18.8867 12.2578 17.6367 12.2578C16.3867 12.2578 15.3516 12.9609 15.3125 14.0352H12.5C12.5391 11.5938 14.7461 9.91406 17.6367 9.91406C20.5859 9.91406 22.5586 11.6523 22.5391 13.8984C22.5586 15.4805 21.4453 16.6133 19.8633 16.8867V17.0039C21.9336 17.2578 23.0859 18.5273 23.0664 20.2852C23.0859 22.707 20.7812 24.4453 17.5977 24.4453Z" fill="white"/>
</svg>
